<svg width="1024" height="1024" xmlns="http://www.w3.org/2000/svg" p-id="19002" version="1.1" class="icon" t="1632904611289">
 <defs>
  <style type="text/css">@font-face { font-family: element-icons; src: url("chrome-extension://moombeodfomdpjnpocobemoiaemednkg/fonts/element-icons.woff") format("woff"), url("chrome-extension://moombeodfomdpjnpocobemoiaemednkg/fonts/element-icons.ttf ") format("truetype"); }</style>
 </defs>
 <g>
  <title>background</title>
  <rect fill="#edfbf4" id="canvas_background" height="1026" width="1026" y="-1" x="-1"/>
 </g>
 <g>
  <title>Layer 1</title>
  <path id="svg_1" p-id="19003" fill="#56DD93" d="m263.34968,468.92593l42.03355,-42.05006l31.5458,31.54581l-42.05006,42.03355l-31.52929,-31.5293zm83.05961,81.55665l-35.03071,-35.03071l42.03355,-42.05006l35.03071,35.04722l-42.03355,42.03355zm-128.77626,-129.07355l42.05007,-42.05006l31.52929,31.5458l-42.05007,42.03355l-31.52929,-31.52929z"/>
  <path id="svg_2" p-id="19004" fill="#56DD93" d="m0,0l0,1024l1024,-1024l-1024,0zm343.53548,181.67742l16.51613,-16.51613l16.51613,16.51613l61.10968,-61.10968l-16.51613,-16.51613l16.51613,-16.51613l16.51613,16.51613l54.50322,-54.50322l14.86452,14.86451l-52.85161,52.85162l16.51613,16.51612l-16.51613,16.51613l-16.51613,-16.51613l-61.10968,61.10968l16.51613,16.51613l-16.51613,16.51613l-16.51613,-16.51613l-52.85161,52.85161l-14.86452,-14.86451l52.85162,-52.85162l-18.16775,-14.86451zm-54.50322,474.0129l-21.47097,21.47097l-19.81936,-13.2129c8.25807,-6.60645 14.86452,-13.21291 19.81936,-18.16774c6.60645,-6.60646 6.60645,-13.21291 1.65161,-18.16775l-56.15484,-56.15483c-8.25806,16.51612 -14.86451,28.07741 -19.81935,37.98709l-21.47097,-13.2129c8.25807,-13.2129 16.51613,-28.07742 23.12258,-42.94194l-54.50322,-54.50322l-29.72904,29.72903l-16.51613,-16.51613l29.72904,-29.72903l-41.29032,-41.29033l16.51612,-16.51612l42.94194,42.94193l23.12258,-23.12258l16.51613,16.51613l-23.12258,23.12258l47.89677,47.89677c4.95484,-13.2129 8.25807,-23.12258 11.56129,-31.38064l16.51613,16.51613c-3.30322,9.90968 -8.25806,21.47097 -11.56129,31.38064l67.71613,67.71613c13.2129,11.56129 13.2129,26.42581 -1.65161,39.63871zm84.23226,-77.6258l-16.51613,16.51613l-137.08387,-137.08388c3.30322,13.21291 4.95484,28.07742 6.60645,42.94194l-23.12258,-11.56129c-6.60645,-42.94194 -19.81936,-84.23226 -42.94194,-123.87097l19.81936,-13.2129c8.25806,14.86451 16.51613,31.38064 23.12258,49.54839l42.94193,-42.94194c-16.51613,-8.25806 -33.03225,-16.51613 -49.54838,-23.12258l11.56129,-19.81935c19.81935,8.25806 36.33548,16.51612 51.2,24.77419l-3.30323,8.25806l44.59355,-44.59355l16.51613,16.51613l-42.94194,42.94194l31.38065,31.38064l36.33548,-36.33548l16.51613,16.51613l-36.33548,36.33548l31.38064,31.38065l36.33549,-36.33549l14.86451,14.86452l-36.33548,36.33548l34.68387,34.68388l42.94193,-42.94194l16.51613,16.51613l-100.74838,100.74839l11.56129,11.56129zm168.46451,-166.81291l-82.58064,-82.58064c-1.65162,18.16774 -3.30323,36.33548 -6.60646,57.80645l-24.77419,-3.30323c9.90968,-46.24516 9.90968,-89.18709 1.65161,-127.17419l-57.80645,57.80645l-13.2129,-16.51613l66.06452,-66.06451c-3.30323,-9.90968 -6.60646,-18.16775 -9.90968,-24.7742l19.81935,-13.2129l4.95484,9.90968l4.95484,9.90967l112.30968,-113.96129l14.86452,14.86452l-122.21936,122.21935c4.95484,19.81936 8.25807,39.63871 9.90968,59.45807l99.09677,99.09677l-16.51613,16.51613zm94.14194,-95.79354l-28.07742,28.07741l-21.47097,-11.56129c13.2129,-11.56129 21.47097,-19.81935 26.42581,-24.77419c4.95484,-4.95484 6.60645,-11.56129 0,-16.51613l-26.42581,-26.42581l-64.4129,64.41291l-16.51613,-16.51613l64.4129,-64.4129l-14.86451,-14.86452c3.30322,-9.90968 6.60645,-26.42581 9.90967,-47.89677l-77.6258,77.6258l-14.86452,-14.86451l100.74839,-100.74839l11.56129,11.56129c-3.30323,21.47097 -4.95484,42.94193 -9.90968,62.76129l9.90968,9.90968l51.2,-51.2l16.51613,16.51613l-51.2,51.2l31.38064,31.38064c16.51613,11.56129 16.51613,23.12258 3.30323,36.33549z"/>
 </g>
</svg>